<svg xmlns="http://www.w3.org/2000/svg" xmlns:xlink="http://www.w3.org/1999/xlink" width="210.698" height="86.763" viewBox="0 0 210.698 86.763"><defs><style>.a{opacity:0.796;fill:url(#a);}.b,.c{opacity:0.136;}.b{fill:url(#b);}.c{fill:url(#c);}</style><linearGradient id="a" x2="1" y2="0.956" gradientUnits="objectBoundingBox"><stop offset="0" stop-color="#183c77"/><stop offset="1" stop-color="#00c9c9"/></linearGradient><radialGradient id="b" cx="0.478" cy="0.5" r="1.82" gradientTransform="matrix(0.232, 0.455, -0.08, 0.601, 0.407, -0.018)" gradientUnits="objectBoundingBox"><stop offset="0" stop-color="#95ebff"/><stop offset="1" stop-color="#f2f2f2" stop-opacity="0"/></radialGradient><radialGradient id="c" cx="0.478" cy="0.5" r="1.752" gradientTransform="matrix(0.241, 0.455, -0.087, 0.625, 0.406, -0.03)" xlink:href="#b"/></defs><g transform="translate(-102.254 -1235.81)"><path class="a" d="M7,0H202.93c3.866,0,7,1.835,7,4.1V82.663c0,2.264-3.134,4.1-7,4.1H7c-3.866,0-7-1.835-7-4.1V4.1C0,1.835,3.134,0,7,0Z" transform="translate(102.427 1235.81)"/><path class="b" d="M112,626.083s33.548-22.944,60.466-21.409,58.353,13.583,89,13.286,61.061-19.54,61.061-19.54v58.072H112Z" transform="translate(-9.573 666.08)"/><path class="c" d="M112,537.48s20.552,15.245,57.575,15.741,60.746-34.208,90.726-34.208,61.8,9.552,61.8,9.552v52.014H112Z" transform="translate(-9.746 741.993)"/></g></svg>