<svg xmlns="http://www.w3.org/2000/svg" xmlns:xlink="http://www.w3.org/1999/xlink" width="1920" height="809" viewBox="0 0 1920 809"><defs><style>.a{fill:#fff;stroke:#707070;}.b{clip-path:url(#a);}.c{opacity:0.71;}.c,.e{clip-path:url(#b);}.d{fill:#f53695;}.e,.f{opacity:0.34;}.f{clip-path:url(#d);}.g{clip-path:url(#e);}.h{opacity:0.75;fill:url(#f);}</style><clipPath id="a"><rect class="a" width="1920" height="809"/></clipPath><clipPath id="b"><path class="a" d="M2023.743,0H0L75.744,582.977S339.5,896.163,934.173,734.465c359.4-103.39,466.2-94.724,736.469-40.831,204.539,40.786,353.1-21.546,353.1-21.546Z"/></clipPath><clipPath id="d"><path class="a" d="M2023.743,0H0V576.183s269.567,279.15,864.239,117.451c359.4-103.39,536.13-53.893,806.4,0,204.539,40.786,353.1-54.178,353.1-54.178Z"/></clipPath><clipPath id="e"><path class="a" d="M0,0H1920V576.183s-255.748,279.15-819.935,117.451c-340.973-103.39-508.646-53.893-765.065,0C140.946,734.42,0,639.456,0,639.456Z" transform="translate(3027 -1657)"/></clipPath><linearGradient id="f" x1="0.962" y1="1.076" x2="0.024" y2="-0.094" gradientUnits="objectBoundingBox"><stop offset="0.02" stop-color="#45108a"/><stop offset="0.293" stop-color="#3d065f"/><stop offset="1" stop-color="#12054e"/><stop offset="1" stop-color="#10054d"/></linearGradient></defs><g class="b"><g class="c" transform="translate(-103.743 -245.414)"><path class="d" d="M2219.793,0H0V997H2219.793Z" transform="translate(0 -143)"/></g><g class="e" transform="translate(-103.743 28.23)"><path class="d" d="M2219.793,0H0V997H2219.793Z" transform="translate(0 -143)"/></g><g class="f" transform="translate(-103.743 -11.028)"><path class="d" d="M2219.793,0H0V997H2219.793Z" transform="translate(0 -143)"/></g><g class="g" transform="translate(-3027 1653)"><path class="h" d="M0,0H2106V997H0Z" transform="translate(2841 -1800)"/></g></g></svg>